PathFileType	4	(X/Y/Z)	/Users/visionmauri/1_9_1_f_Sports2D/1_9_1_f_Sports2D_px_person00.trc
DataRate	CameraRate	NumFrames	NumMarkers	Units	OrigDataRate	OrigDataStartFrame	OrigNumFrames
30.0	30.0	4	22	m	30.0	218	349
Frame#	Time	Hip			RHip			RKnee			RAnkle			RBigToe			RSmallToe			RHeel			LHip			LKnee			LAnkle			LBigToe			LSmallToe			LHeel			Neck			Head			Nose			RShoulder			RElbow			RWrist			LShoulder			LElbow			LWrist			
		X1	Y1	Z1	X2	Y2	Z2	X3	Y3	Z3	X4	Y4	Z4	X5	Y5	Z5	X6	Y6	Z6	X7	Y7	Z7	X8	Y8	Z8	X9	Y9	Z9	X10	Y10	Z10	X11	Y11	Z11	X12	Y12	Z12	X13	Y13	Z13	X14	Y14	Z14	X15	Y15	Z15	X16	Y16	Z16	X17	Y17	Z17	X18	Y18	Z18	X19	Y19	Z19	X20	Y20	Z20	X21	Y21	Z21	X22	Y22	Z22
218	7.287547892720307	524.0404634084797	795.1574137948675	0.0	477.0250779443556	797.8779300232429	0.0	470.39472261402983	990.3983350148749	0.0	502.67216075549555	1157.0543295796842	0.0	458.7865431289579	1214.790643439301	0.0	458.2564611579209	1204.1960731969477	0.0	515.1363807441122	1184.858367721723	0.0	571.754529315127	791.845822511263	0.0	573.7426792848757	951.2672221986755	0.0	578.5528520190888	1166.5510801592886	0.0	575.6716323390722	1237.808866101902	0.0	604.9175439478656	1234.314655916546	0.0	572.6398835302185	1195.2313982508103	0.0	531.8342408655407	544.6122758364194	0.0	535.9452903458516	423.67054412674895	0.0	538.879470458269	512.9970830291454	0.0	442.5467157018267	567.4687570261502	0.0	412.8034843971851	682.1931868216152	0.0	397.6704925335945	779.068296588607	0.0	621.3976678298758	572.5373368604688	0.0	652.084805459896	687.2286520048614	0.0	656.7260136993339	728.3391813353269	0.0
219	7.320977011494253	527.0348475794218	795.1395747429675	0.0	480.0915895273933	798.30468036183	0.0	469.3773526518389	993.0188159834429	0.0	502.86609559257295	1157.107739815993	0.0	453.05702423608426	1214.1017582950612	0.0	453.12492802798823	1202.776688946086	0.0	515.9250637027885	1185.1790024203674	0.0	574.0803555192505	793.0951566498574	0.0	577.2017995018678	953.130305877112	0.0	579.0759946052611	1167.3097231256338	0.0	575.8219491738414	1237.7745363149022	0.0	605.4338140630882	1234.6307318468478	0.0	573.2870436212309	1195.1815555434557	0.0	535.3818146039009	544.6149459233576	0.0	542.7167881870893	423.3842863913294	0.0	543.3680370069072	514.6764323886263	0.0	447.09458276558445	567.405639654078	0.0	415.43187760997716	679.6856167225287	0.0	398.59708026515125	778.548931708665	0.0	624.3264443592678	572.7493021220747	0.0	656.0309346156553	686.6954753498549	0.0	661.9537997287543	700.9363103657388	0.0
220	7.354406130268199	530.1416409040505	795.0623791134826	0.0	482.5476225851535	798.9144318770539	0.0	467.9409169685235	995.7147535241102	0.0	502.7162676024799	1156.6780031867252	0.0	449.3819110671667	1214.2238386147328	0.0	449.99770735650645	1202.7227896953655	0.0	516.7682676232711	1185.287792178168	0.0	577.5822360812979	793.3974131462331	0.0	580.4597452682683	955.2445843987348	0.0	579.1501850618482	1169.0805840256792	0.0	576.6254421404393	1237.2367644014726	0.0	606.1803181224885	1234.4849422334182	0.0	573.6811800823401	1196.3148722392975	0.0	539.5748778802468	545.7012697218096	0.0	548.3063854473918	423.113106155159	0.0	545.8141584518272	516.1440743542082	0.0	451.50802893764705	567.0812508989975	0.0	417.79909193788103	677.34404260531	0.0	399.5890447949046	777.8959413127263	0.0	628.6420790680573	572.3750273821165	0.0	660.3300321551624	687.7462651805893	0.0	665.4464815708939	691.1401121181748	0.0
221	7.387835249042145	533.2312685352932	795.0501994509244	0.0	484.7084923438116	799.606267881426	0.0	466.0260787490478	998.5379682309532	0.0	502.5755077931695	1155.2110266693203	0.0	448.2710836828535	1214.0217462178043	0.0	450.0742032926548	1202.693328643142	0.0	517.1018776491295	1183.8987173492058	0.0	581.866383200892	793.6044029396528	0.0	582.9165796444798	958.5673871635843	0.0	579.3304693726027	1171.317725881595	0.0	578.5759835744695	1237.3110760838517	0.0	607.2437210485485	1234.7521972192574	0.0	573.9154508257999	1198.28185897652	0.0	544.0664938051198	546.5991295310564	0.0	552.2253902755365	422.8223990312984	0.0	546.4992470695571	516.860498573042	0.0	454.9168225767613	565.9880607712225	0.0	419.84845707895556	676.8404384561201	0.0	400.3350065621889	778.1472934246833	0.0	633.837668839939	571.3276064909428	0.0	664.2270946202485	690.8171333534339	0.0	667.5043129439536	692.2857702238886	0.0
